<svg width="18" height="17" viewBox="0 0 18 17" fill="none" xmlns="http://www.w3.org/2000/svg">
<mask id="mask0_784_233" style="mask-type:alpha" maskUnits="userSpaceOnUse" x="0" y="0" width="18" height="17">
<path d="M0.988464 0.399414H17.0216V16.3994H0.988464V0.399414Z" fill="white"/>
</mask>
<g mask="url(#mask0_784_233)">
<path fill-rule="evenodd" clip-rule="evenodd" d="M9.00501 0.399414C6.82786 0.399414 6.55483 0.408623 5.69981 0.447556C4.84651 0.486394 4.26379 0.621643 3.75384 0.81942C3.22671 1.02383 2.77962 1.29738 2.33395 1.74212C1.88826 2.1869 1.61418 2.63304 1.40931 3.15908C1.21112 3.66797 1.07562 4.24949 1.03667 5.10103C0.997661 5.95431 0.988464 6.22671 0.988464 8.3994C0.988464 10.5721 0.997661 10.8445 1.03667 11.6978C1.07562 12.5493 1.21112 13.1309 1.40931 13.6397C1.61418 14.1658 1.88826 14.6119 2.33395 15.0567C2.77962 15.5015 3.22671 15.775 3.75384 15.9794C4.26379 16.1772 4.84651 16.3124 5.69981 16.3513C6.55483 16.3902 6.82786 16.3994 9.00501 16.3994C11.1822 16.3994 11.4552 16.3902 12.3102 16.3513C13.1635 16.3124 13.7462 16.1772 14.2562 15.9794C14.7833 15.775 15.2304 15.5015 15.6761 15.0567C16.1218 14.6119 16.3959 14.1658 16.6007 13.6397C16.7989 13.1309 16.9344 12.5493 16.9734 11.6978C17.0124 10.8445 17.0216 10.5721 17.0216 8.3994C17.0216 6.22675 17.0124 5.95431 16.9734 5.10103C16.9344 4.24949 16.7989 3.66797 16.6007 3.15908C16.3959 2.63304 16.1218 2.1869 15.6761 1.74212C15.2304 1.29738 14.7833 1.02383 14.2562 0.81942C13.7462 0.621643 13.1635 0.486394 12.3102 0.447556C11.4552 0.408623 11.1822 0.399414 9.00501 0.399414ZM9.00501 1.84085C11.1455 1.84085 11.3991 1.84898 12.2444 1.88747C13.026 1.92307 13.4505 2.0534 13.7329 2.16295C14.1071 2.30808 14.3742 2.48144 14.6547 2.76137C14.9352 3.04133 15.1089 3.30782 15.2544 3.68124C15.3642 3.96314 15.4948 4.38674 15.5304 5.16673C15.569 6.0103 15.5771 6.26333 15.5771 8.3994C15.5771 10.5355 15.569 10.7885 15.5304 11.6321C15.4948 12.4121 15.3642 12.8357 15.2544 13.1176C15.1089 13.491 14.9352 13.7575 14.6547 14.0374C14.3742 14.3174 14.1071 14.4908 13.7329 14.6359C13.4505 14.7454 13.026 14.8758 12.2444 14.9113C11.3992 14.9498 11.1457 14.958 9.00501 14.958C6.86433 14.958 6.61084 14.9498 5.76565 14.9113C4.98404 14.8758 4.55954 14.7454 4.27706 14.6359C3.9029 14.4908 3.63582 14.3174 3.35531 14.0374C3.0748 13.7575 2.90105 13.491 2.75562 13.1176C2.64587 12.8357 2.51527 12.4121 2.4796 11.6321C2.44103 10.7885 2.43289 10.5355 2.43289 8.3994C2.43289 6.26333 2.44103 6.0103 2.4796 5.16673C2.51527 4.38674 2.64587 3.96314 2.75562 3.68124C2.90105 3.30782 3.0748 3.04133 3.35531 2.7614C3.63582 2.48144 3.9029 2.30808 4.27706 2.16295C4.55954 2.0534 4.98404 1.92307 5.76562 1.88747C6.61096 1.84898 6.86449 1.84085 9.00501 1.84085Z" fill="currentColor"/>
</g>
<path fill-rule="evenodd" clip-rule="evenodd" d="M9.00761 11.2528C7.43952 11.2528 6.1683 9.98156 6.1683 8.41346C6.1683 6.84537 7.43952 5.57418 9.00761 5.57418C10.5757 5.57418 11.8469 6.84537 11.8469 8.41346C11.8469 9.98156 10.5757 11.2528 9.00761 11.2528ZM9.00761 4.03943C6.59189 4.03943 4.63354 5.99774 4.63354 8.41346C4.63354 10.8292 6.59189 12.7875 9.00761 12.7875C11.4233 12.7875 13.3816 10.8292 13.3816 8.41346C13.3816 5.99774 11.4233 4.03943 9.00761 4.03943Z" fill="currentColor"/>
<path fill-rule="evenodd" clip-rule="evenodd" d="M14.1106 4.03943C14.1106 4.44206 13.7842 4.76844 13.3816 4.76844C12.979 4.76844 12.6526 4.44206 12.6526 4.03943C12.6526 3.6368 12.979 3.31042 13.3816 3.31042C13.7842 3.31042 14.1106 3.6368 14.1106 4.03943Z" fill="currentColor"/>
</svg>
