<svg width="17" height="17" viewBox="0 0 17 17" fill="none" xmlns="http://www.w3.org/2000/svg">
<path fill-rule="evenodd" clip-rule="evenodd" d="M0.425182 5.5299H3.54371V16.3984H0.425182V5.5299ZM1.90496 4.17045H1.88238C0.753497 4.17045 0.0216064 3.33961 0.0216064 2.28749C0.0216064 1.21386 0.775134 0.399414 1.92659 0.399414C3.07711 0.399414 3.78454 1.21181 3.80712 2.28442C3.80712 3.33654 3.07711 4.17045 1.90496 4.17045ZM16.0216 16.3994H12.4854V10.7741C12.4854 9.30196 11.9322 8.29799 10.7159 8.29799C9.78548 8.29799 9.26808 8.97516 9.02725 9.62979C8.93694 9.86337 8.95105 10.1902 8.95105 10.518V16.3994H5.44776C5.44776 16.3994 5.49291 6.43553 5.44776 5.5299H8.95105V7.23563C9.15801 6.48982 10.2775 5.42541 12.0639 5.42541C14.2803 5.42541 16.0216 6.98976 16.0216 10.3551V16.3994Z" fill="currentColor"/>
</svg>
