<svg width="39" height="57" viewBox="0 0 39 57" fill="none" xmlns="http://www.w3.org/2000/svg">
    <path fill-rule="evenodd" clip-rule="evenodd" d="M3.9037 28.6146C2.6958 28.7964 1.39544 28.8906 0 28.8906V24.4206C1.41134 24.4206 2.65242 24.31 3.74386 24.1125C3.72383 23.021 3.71782 21.9465 3.72505 20.8953C3.75658 16.3145 4.04001 12.1058 4.53327 8.79986C4.77929 7.15095 5.08488 5.67568 5.45699 4.46996C5.7999 3.35887 6.29625 2.13734 7.11129 1.3223C7.75038 0.683214 8.61576 0.333875 9.5565 0.409639C10.3923 0.476949 11.0666 0.860692 11.5362 1.21828C12.4679 1.92773 13.2525 3.0381 13.8747 4.18971C15.1539 6.55732 16.202 9.95629 16.3568 13.4701C16.5116 16.9822 15.7794 20.8929 13.143 23.9499C11.8953 25.3967 10.2951 26.5672 8.31995 27.4051C8.38647 28.8846 8.47956 30.3783 8.60067 31.8706H19.1217V9.71203L34.5184 26.5987V10.9291H38.9884V38.1358L23.5917 21.2491V36.3406H14.9307C20.759 41.2979 21.8885 47.466 20.2778 51.9374C19.307 54.6325 16.9883 57.2375 13.7785 56.9828C10.549 56.7265 8.27922 53.7109 7.04057 49.4082C5.2604 43.2245 4.27964 35.7519 3.9037 28.6146ZM9.23209 37.7516C9.73343 41.4545 10.427 45.0135 11.3361 48.1716C12.4566 52.0639 13.8654 52.5056 14.132 52.5268C14.4184 52.5495 15.4134 52.2519 16.0723 50.4226C17.0772 47.6327 16.5397 42.068 9.23209 37.7516ZM8.19389 22.4144C8.82004 21.9902 9.33475 21.5213 9.75801 21.0305C11.3976 19.1294 12.0158 16.4966 11.8912 13.6669C11.7666 10.839 10.9056 8.09793 9.94203 6.31453C9.85826 6.15948 9.77671 6.01727 9.69808 5.88726C9.42763 6.78958 9.17358 7.99009 8.95435 9.45949C8.50083 12.4991 8.22551 16.4874 8.19496 20.926C8.19157 21.4177 8.1912 21.914 8.19389 22.4144ZM8.79869 4.75411C8.79867 4.75387 8.80249 4.75607 8.8102 4.76145C8.80256 4.75704 8.7987 4.75435 8.79869 4.75411Z" fill="currentColor"/>
</svg>
