<svg width="21" height="17" viewBox="0 0 21 17" fill="none" xmlns="http://www.w3.org/2000/svg">
<g clip-path="url(#clip0_784_241)">
<path d="M20.3852 2.29341C19.6361 2.61471 18.8308 2.83178 17.9858 2.92943C18.8483 2.42955 19.5108 1.63799 19.8227 0.694737C19.0154 1.1577 18.1213 1.49377 17.1696 1.67491C16.4076 0.889843 15.3218 0.399414 14.1202 0.399414C11.813 0.399414 9.94225 2.20786 9.94225 4.43852C9.94225 4.7551 9.97921 5.06342 10.0505 5.35904C6.57827 5.19061 3.49989 3.58248 1.43929 1.1387C1.07967 1.73525 0.873588 2.42906 0.873588 3.16933C0.873588 4.57073 1.61116 5.80704 2.73218 6.53136C2.04735 6.51039 1.40315 6.32867 0.839886 6.02617C0.839411 6.043 0.839411 6.05993 0.839411 6.07696C0.839411 8.03395 2.27953 9.66639 4.19076 10.0377C3.8402 10.13 3.47111 10.1794 3.0901 10.1794C2.8209 10.1794 2.55923 10.154 2.30407 10.1069C2.83577 11.7116 4.37862 12.8794 6.20687 12.9119C4.77703 13.9953 2.97566 14.6411 1.01821 14.6411C0.680982 14.6411 0.348444 14.6219 0.0216064 14.5846C1.87053 15.7307 4.06654 16.3994 6.42588 16.3994C14.1104 16.3994 18.3128 10.2446 18.3128 4.9068C18.3128 4.73167 18.3087 4.55753 18.3006 4.38418C19.1168 3.8148 19.8251 3.10347 20.3852 2.29341H20.3852Z" fill="currentColor"/>
</g>
<defs>
<clipPath id="clip0_784_241">
<rect width="20.3636" height="16" fill="white" transform="translate(0.0216064 0.399414)"/>
</clipPath>
</defs>
</svg>
